<?xml version="1.0" standalone="no"?>
<!DOCTYPE svg PUBLIC "-//W3C//DTD SVG 20010904//EN"
 "http://www.w3.org/TR/2001/REC-SVG-20010904/DTD/svg10.dtd">
<svg version="1.0" xmlns="http://www.w3.org/2000/svg"
 width="980.000000pt" height="980.000000pt" viewBox="0 0 980.000000 980.000000"
 preserveAspectRatio="xMidYMid meet">

<g transform="translate(0.000000,980.000000) scale(0.100000,-0.100000)"
fill="#000000" stroke="none">
<path d="M4691 8419 c-538 -60 -991 -311 -1242 -688 -84 -124 -117 -188 -175
-337 -115 -294 -166 -580 -165 -929 1 -375 64 -719 231 -1255 124 -398 191
-624 226 -758 39 -152 96 -463 85 -474 -3 -3 -53 -21 -111 -38 -129 -40 -169
-60 -227 -113 -78 -72 -107 -163 -66 -209 10 -11 42 -38 70 -60 30 -22 62 -57
75 -81 20 -39 22 -55 20 -209 -2 -140 2 -188 23 -301 21 -113 23 -143 14 -196
-13 -82 -34 -143 -74 -216 -69 -126 -153 -303 -173 -365 -69 -212 -90 -490
-37 -490 8 0 59 -22 112 -49 462 -232 1301 -335 2158 -265 484 39 945 141
1238 273 38 17 75 31 82 31 8 0 17 5 21 12 14 22 4 139 -22 261 -50 240 -52
264 -52 512 0 132 4 265 9 295 5 30 11 69 14 85 2 17 16 98 30 180 17 96 28
206 32 305 6 191 -12 628 -31 730 -37 197 -118 299 -228 288 -33 -3 -33 -3
-45 57 -27 135 -37 337 -36 715 1 416 10 606 48 1025 42 472 48 573 49 910 1
367 -8 452 -66 611 -138 383 -542 641 -1143 730 -122 18 -527 26 -644 13z
m159 -48 c0 -5 4 -21 10 -35 13 -35 40 -24 40 16 0 41 31 34 42 -10 11 -41 32
-37 36 6 3 28 7 32 33 32 26 0 29 -3 29 -34 0 -57 34 -54 42 4 2 17 10 26 26
28 19 3 22 -1 22 -33 0 -29 3 -36 18 -33 10 2 18 14 20 31 3 21 8 27 29 27 23
0 25 -3 19 -34 -4 -21 -2 -37 4 -41 16 -10 40 14 40 41 0 20 5 24 30 24 27 0
29 -3 27 -32 -3 -45 15 -50 33 -10 11 23 21 31 35 30 17 -3 19 -9 17 -39 -2
-21 2 -40 8 -44 18 -11 40 15 40 47 0 23 4 29 16 24 9 -3 19 -6 24 -6 4 0 5
-20 2 -45 -3 -29 -1 -45 6 -45 15 0 42 41 42 63 0 14 5 17 23 11 29 -9 28 -6
17 -44 -6 -22 -6 -38 0 -44 13 -13 36 8 44 39 4 14 13 25 21 25 12 0 15 -11
13 -47 -2 -27 2 -50 7 -52 8 -3 32 33 47 72 2 5 12 5 22 1 15 -6 17 -14 11
-60 -5 -46 -4 -54 9 -54 9 0 20 10 25 23 26 65 25 65 47 57 21 -8 21 -10 8
-61 -7 -28 -11 -55 -8 -60 10 -17 33 4 45 39 15 49 23 56 48 43 l21 -11 -21
-52 c-36 -92 3 -102 43 -10 l19 42 30 -17 c16 -9 29 -20 29 -23 0 -3 -11 -21
-24 -40 -32 -49 -41 -80 -23 -80 15 0 45 31 77 78 15 21 16 21 38 4 l23 -18
-35 -38 c-35 -36 -48 -76 -25 -76 6 0 29 18 51 40 22 22 44 40 49 40 23 0 17
-25 -15 -60 -65 -72 -39 -97 29 -30 37 37 43 39 55 25 11 -14 8 -21 -23 -52
-66 -64 -36 -90 32 -27 39 34 40 35 51 15 6 -12 7 -21 2 -21 -13 0 -82 -66
-82 -79 0 -20 32 -11 72 20 31 25 42 29 51 19 9 -9 7 -15 -12 -28 -50 -36 -74
-63 -63 -74 8 -8 25 -3 57 17 36 21 50 24 58 15 9 -9 6 -16 -13 -28 -35 -24
-70 -59 -70 -72 0 -17 23 -11 62 15 20 14 40 25 43 25 3 0 12 -15 20 -32 13
-32 13 -33 -23 -53 -19 -11 -37 -25 -39 -31 -6 -17 26 -25 49 -13 28 15 48 4
48 -26 0 -19 -8 -28 -35 -39 -47 -20 -44 -34 8 -38 39 -3 42 -5 45 -35 3 -29
1 -32 -29 -35 -49 -5 -48 -26 1 -34 34 -6 41 -10 38 -27 -2 -13 -13 -23 -27
-27 -37 -8 -38 -29 -2 -36 27 -6 31 -11 31 -40 0 -27 -4 -34 -19 -34 -10 0
-24 -7 -31 -15 -11 -13 -8 -16 19 -21 28 -6 31 -10 31 -44 0 -30 -5 -39 -25
-48 -14 -6 -25 -16 -25 -22 0 -5 11 -10 25 -10 22 0 25 -4 25 -39 0 -33 -4
-40 -22 -43 -31 -4 -33 -25 -3 -32 39 -10 35 -52 -6 -60 -35 -7 -35 -29 -1
-34 18 -3 22 -10 22 -43 0 -32 -3 -39 -19 -39 -31 0 -35 -19 -7 -32 32 -14 34
-49 5 -63 -28 -13 -30 -29 -3 -33 16 -2 20 -9 16 -32 -2 -17 -11 -30 -23 -33
-25 -7 -24 -27 1 -34 28 -7 25 -38 -6 -67 -26 -24 -26 -24 -5 -31 29 -9 30
-61 1 -70 -24 -7 -26 -23 -5 -31 19 -8 20 -64 1 -64 -20 0 -27 -27 -9 -34 17
-7 16 -12 -7 -266 -12 -127 -29 -449 -31 -580 l-2 -95 -9 110 c-12 146 -3 752
18 1200 19 406 14 539 -31 723 -85 352 -252 570 -551 721 -260 130 -486 181
-810 181 -409 0 -669 -68 -929 -245 -428 -290 -659 -629 -769 -1125 -40 -184
-56 -334 -56 -541 0 -337 40 -617 151 -1058 38 -151 68 -276 66 -277 -5 -5
-152 482 -187 616 -48 188 -70 309 -64 349 5 30 2 39 -10 44 -17 7 -23 57 -6
57 6 0 10 9 10 20 0 11 -7 20 -15 20 -10 0 -15 10 -15 30 0 17 5 30 10 30 16
0 12 40 -5 46 -20 8 -19 34 2 49 15 11 15 14 -5 31 -25 21 -29 44 -7 44 8 0
15 7 15 15 0 9 -7 18 -15 21 -8 4 -15 13 -15 20 0 8 7 17 15 20 8 4 15 13 15
20 0 8 -7 17 -15 20 -8 4 -15 15 -15 25 0 10 7 19 15 19 8 0 15 7 15 15 0 9
-7 18 -15 21 -19 8 -20 44 -1 44 25 0 28 19 6 37 -26 22 -26 43 0 43 23 0 27
28 5 36 -8 4 -15 12 -15 20 0 10 7 13 25 8 21 -5 25 -3 25 15 0 14 -9 25 -26
31 -36 14 -25 36 15 32 27 -3 32 0 29 15 -2 10 -15 24 -30 31 -40 19 -28 49
18 44 43 -5 45 13 4 36 -16 9 -30 25 -30 35 0 15 6 17 35 11 45 -8 48 16 5 43
-40 25 -27 48 18 31 17 -7 34 -9 38 -5 13 12 -6 38 -36 49 -30 10 -37 37 -9
30 58 -15 79 -14 79 2 0 11 -15 24 -40 33 -43 17 -58 50 -17 39 68 -19 77 -19
77 2 0 16 -10 24 -40 33 -22 7 -40 13 -40 15 0 1 3 9 6 18 5 14 10 14 45 -1
21 -8 46 -13 54 -9 24 9 7 33 -36 50 -21 9 -39 23 -39 31 0 20 9 19 61 -4 24
-11 47 -17 51 -15 20 13 4 36 -37 56 -25 12 -45 28 -45 36 0 10 6 12 18 7 69
-28 102 -38 108 -32 15 14 -9 39 -55 59 -46 19 -49 22 -39 44 l11 23 42 -24
c83 -49 107 -15 25 36 -28 17 -48 35 -44 40 9 15 27 10 66 -16 43 -29 71 -33
66 -8 -3 15 -40 46 -86 72 -13 8 -6 41 9 41 4 0 28 -13 52 -30 52 -35 67 -37
67 -11 0 12 -17 30 -45 48 -47 30 -54 43 -31 62 12 10 25 5 66 -25 33 -24 55
-33 61 -27 16 16 2 36 -46 68 -49 33 -51 37 -31 54 11 9 25 5 64 -19 57 -35
72 -37 72 -11 0 11 -15 29 -37 43 -20 13 -41 26 -47 30 -6 4 -5 12 3 22 12 14
19 11 64 -24 49 -40 76 -47 84 -24 2 7 -19 29 -46 50 -48 37 -64 64 -39 64 6
0 36 -18 65 -41 50 -37 83 -45 83 -19 0 5 -25 29 -55 52 -47 37 -53 45 -40 57
12 13 21 8 64 -32 28 -26 57 -47 66 -47 30 0 14 39 -32 79 -42 36 -46 42 -33
55 13 13 21 9 64 -30 28 -24 56 -44 63 -44 26 0 12 39 -28 75 -38 34 -40 38
-26 53 15 14 20 12 62 -27 43 -39 65 -45 65 -18 0 7 -14 30 -32 51 -25 30 -28
40 -17 47 20 13 21 12 48 -24 13 -18 35 -41 48 -50 21 -17 24 -17 29 -2 4 10
-6 34 -25 61 -17 25 -29 49 -26 55 12 19 41 8 74 -26 53 -57 83 -31 32 28 -17
19 -28 37 -24 41 14 14 35 4 64 -29 51 -58 78 -42 39 23 -11 18 -18 37 -15 43
7 11 35 12 35 1 0 -11 49 -62 60 -62 15 0 12 43 -6 68 -14 20 -14 23 2 29 11
4 26 -6 49 -33 26 -30 36 -36 45 -27 10 9 9 19 -4 43 -30 62 8 70 48 10 14
-22 31 -40 36 -40 19 0 22 28 5 60 -19 36 -19 36 16 45 24 6 28 3 39 -29 12
-36 36 -48 46 -23 3 8 0 25 -5 39 -8 22 -7 27 9 31 20 5 30 -10 30 -44 0 -24
29 -37 40 -19 5 7 6 29 3 48 -5 31 -4 33 17 30 17 -2 26 -12 32 -36 6 -24 14
-32 26 -30 13 3 16 13 15 41 -2 33 0 37 22 37 18 0 25 -5 25 -19 0 -30 11 -51
25 -51 16 0 29 35 20 50 -3 5 -3 15 0 20 8 13 45 13 45 1z m362 -192 c141 -15
343 -67 475 -123 359 -152 556 -386 634 -751 37 -179 42 -312 24 -665 -9 -179
-19 -509 -22 -735 -6 -438 2 -599 38 -792 11 -60 24 -190 29 -293 5 -102 12
-214 16 -250 l7 -65 -33 45 c-233 318 -750 517 -1290 497 -581 -23 -1103 -254
-1401 -620 -24 -30 -41 -44 -43 -35 -2 7 -18 87 -36 178 -17 91 -76 343 -130
560 -154 613 -184 807 -184 1180 0 257 11 364 64 578 72 292 181 511 363 729
173 205 483 425 695 492 231 73 525 99 794 70z m211 -3194 c469 -61 841 -281
984 -581 31 -65 34 -79 34 -165 0 -52 -4 -104 -8 -116 -8 -22 -10 -21 -63 28
-282 258 -750 409 -1270 409 -546 0 -1023 -162 -1303 -443 -49 -49 -90 -87
-91 -85 -2 2 -13 65 -26 140 l-22 137 45 63 c53 74 187 206 272 268 254 187
577 303 980 353 82 11 365 6 468 -8z m-3 -491 c293 -37 576 -135 774 -268 80
-54 191 -156 169 -156 -26 0 -187 91 -197 112 -17 33 -68 47 -181 48 -55 0
-161 9 -235 20 -74 12 -204 25 -289 30 -84 6 -182 18 -217 26 -59 15 -68 15
-128 -1 -36 -10 -73 -15 -83 -12 -10 3 -37 13 -60 21 -42 15 -45 15 -118 -14
-52 -21 -139 -40 -288 -65 -117 -19 -225 -35 -239 -35 -14 0 -37 -9 -51 -20
-14 -11 -32 -17 -41 -14 -10 4 -32 -4 -54 -19 -20 -14 -62 -37 -92 -51 -62
-28 -329 -110 -336 -103 -12 12 97 124 185 190 250 188 593 298 1036 331 84 6
323 -5 445 -20z m1188 -210 c85 -55 117 -224 127 -679 8 -320 3 -385 -47 -665
-27 -154 -37 -189 -82 -290 -148 -327 -468 -719 -732 -896 -381 -254 -947
-331 -1345 -181 -274 103 -534 307 -691 542 -49 72 -268 490 -268 510 0 3 28
-17 63 -44 34 -26 114 -82 177 -123 143 -92 227 -166 333 -290 183 -215 351
-323 613 -395 82 -22 118 -27 214 -26 295 2 518 110 845 409 275 251 586 668
689 925 90 224 131 542 92 713 -16 69 -67 178 -109 234 -24 31 -24 35 -11 79
8 25 14 79 14 119 0 67 2 73 23 77 30 6 67 -1 95 -19z m-1480 -454 c34 -110
105 -217 188 -280 55 -42 60 -49 52 -71 -28 -74 -50 -301 -32 -330 11 -18 34
18 34 53 0 15 2 28 4 28 2 0 25 -10 52 -22 36 -15 70 -21 126 -22 l77 -1 3
-49 3 -49 62 -13 c87 -18 144 -45 192 -93 61 -61 56 -71 -33 -71 -43 0 -78 -5
-82 -11 -4 -8 12 -9 57 -4 38 4 75 2 92 -4 24 -9 27 -16 27 -56 0 -40 3 -45
27 -51 37 -10 188 -10 257 -1 l58 7 -38 -52 c-156 -217 -329 -416 -478 -551
-318 -287 -524 -386 -809 -388 -126 -1 -213 18 -352 76 -175 72 -303 166 -423
310 -36 44 -101 115 -143 157 -83 83 -136 173 -146 247 -5 39 -3 44 47 93 l52
52 -6 57 c-4 40 -2 60 7 67 7 6 54 20 105 31 127 28 135 33 135 86 0 34 -5 45
-48 111 -52 80 -55 93 -17 66 87 -62 252 -70 358 -16 32 16 62 31 66 32 5 2 8
-5 8 -16 0 -11 9 -30 19 -43 17 -21 20 -22 26 -7 8 21 -10 111 -41 203 -13 39
-24 75 -24 80 0 6 16 19 35 29 78 42 156 158 189 282 9 32 19 107 23 166 l6
107 29 -20 c47 -34 95 -35 158 -2 l55 28 8 -30 c5 -16 20 -68 35 -115z m721
-274 c54 -65 -14 -233 -116 -288 -83 -45 -124 -51 -211 -33 -41 8 -89 24 -106
34 -27 15 -31 23 -29 57 1 21 5 55 9 74 l6 35 14 -47 c17 -56 29 -66 55 -42
16 14 23 15 45 5 26 -11 27 -20 9 -63 -9 -23 20 -25 41 -3 9 8 32 15 52 15 24
0 52 11 81 30 24 17 56 30 71 30 23 0 31 7 44 40 20 51 20 102 1 140 -15 28
-14 30 4 30 10 0 24 -6 30 -14z m-181 -78 c17 -17 15 -53 -3 -68 -38 -31 -96
27 -65 65 15 18 51 20 68 3z m-1543 -90 c0 -82 31 -138 76 -138 16 0 47 -9 69
-20 24 -12 59 -20 89 -20 27 0 53 -4 56 -10 3 -5 13 -10 22 -10 11 0 13 5 8
18 -18 42 -17 60 5 72 17 9 26 8 45 -4 22 -15 24 -14 34 16 6 17 11 40 11 52
1 30 14 5 33 -62 l16 -52 -38 -26 c-21 -14 -67 -35 -102 -47 -113 -39 -219
-11 -298 79 -38 43 -71 120 -71 165 0 17 25 49 38 49 4 0 7 -28 7 -62z m226
-9 c16 -30 -3 -69 -34 -69 -29 0 -47 17 -47 45 0 45 60 63 81 24z"/>
<path d="M5005 7835 c-89 -45 -107 -163 -39 -245 73 -86 179 -75 230 22 21 40
18 136 -6 175 -36 59 -120 81 -185 48z m26 -217 c38 -40 35 -49 -7 -22 -33 22
-54 65 -53 106 l2 33 10 -39 c7 -22 28 -57 48 -78z"/>
<path d="M4277 7596 c-46 -17 -64 -32 -83 -67 -55 -108 76 -264 208 -246 77
10 122 65 121 148 -1 79 -54 147 -131 169 -48 13 -69 12 -115 -4z m-1 -211
c17 -28 17 -29 1 -16 -27 22 -47 66 -46 103 1 31 1 31 13 -12 7 -26 21 -59 32
-75z"/>
<path d="M5610 7358 c-84 -43 -110 -120 -71 -202 38 -76 113 -104 202 -75 135
46 151 223 25 280 -55 25 -103 24 -156 -3z m28 -237 c-6 -2 -22 9 -37 24 l-26
27 36 -24 c20 -13 32 -25 27 -27z"/>
<path d="M5033 7199 c-120 -36 -106 -217 21 -279 134 -64 239 82 156 217 -32
54 -112 82 -177 62z m6 -204 c9 -12 4 -8 -11 7 -16 16 -28 34 -28 41 0 6 6 3
12 -8 6 -11 18 -29 27 -40z"/>
<path d="M3795 7146 c-53 -24 -78 -60 -82 -118 -11 -140 143 -256 247 -186 26
17 40 38 53 76 28 85 4 164 -65 215 -34 25 -113 32 -153 13z m-21 -147 c8 -40
41 -86 80 -110 17 -10 25 -19 18 -19 -25 0 -73 34 -92 65 -22 36 -35 95 -22
95 5 0 12 -14 16 -31z"/>
<path d="M4435 6950 c-75 -31 -94 -128 -39 -197 37 -45 98 -83 137 -83 83 0
132 57 125 145 -5 61 -33 106 -82 129 -36 17 -107 20 -141 6z m31 -189 c25
-30 26 -33 6 -22 -28 15 -62 68 -62 96 1 15 4 13 14 -10 7 -16 26 -45 42 -64z"/>
<path d="M5663 6699 c-38 -24 -67 -90 -58 -135 12 -66 73 -114 144 -114 111 0
160 166 74 246 -34 32 -113 33 -160 3z m30 -179 c16 -19 14 -18 -11 4 -17 17
-32 39 -31 50 0 19 1 18 10 -4 6 -14 20 -36 32 -50z"/>
<path d="M3580 6503 c-66 -60 -55 -168 25 -242 39 -36 51 -41 91 -41 37 0 51
5 74 28 42 43 55 101 36 166 -23 78 -72 116 -150 116 -36 0 -52 -6 -76 -27z
m52 -180 c12 -14 36 -32 51 -40 39 -20 27 -28 -15 -10 -43 18 -78 65 -84 114
l-5 38 15 -38 c8 -22 25 -50 38 -64z"/>
<path d="M5021 6403 c-133 -68 -60 -286 96 -286 40 0 50 4 78 35 86 94 30 255
-92 265 -32 2 -59 -2 -82 -14z"/>
<path d="M4150 6388 c-110 -56 -102 -196 15 -273 34 -22 48 -26 93 -22 86 6
129 67 120 169 -12 117 -124 179 -228 126z m0 -188 c6 -11 8 -20 6 -20 -13 0
-36 62 -35 92 1 31 2 31 9 -9 5 -23 14 -51 20 -63z"/>
<path d="M5677 5966 c-62 -23 -106 -88 -107 -157 0 -93 93 -169 192 -156 138
18 189 218 76 300 -34 25 -112 31 -161 13z m-15 -228 c14 -15 23 -28 19 -28
-12 0 -58 53 -64 75 -6 20 -6 20 6 0 7 -10 24 -32 39 -47z"/>
<path d="M4554 5861 c-44 -27 -64 -59 -64 -105 0 -51 31 -100 84 -131 100 -58
196 -6 196 107 0 112 -124 185 -216 129z m24 -176 c9 -11 4 -9 -10 5 -14 14
-29 36 -32 50 -6 22 -5 21 10 -5 9 -16 24 -39 32 -50z"/>
<path d="M3624 5831 c-31 -19 -54 -64 -54 -106 0 -36 48 -119 83 -142 48 -33
99 -31 130 6 58 70 34 206 -44 247 -38 19 -78 18 -115 -5z m3 -133 c-3 -8 -6
-5 -6 6 -1 11 2 17 5 13 3 -3 4 -12 1 -19z m33 -50 c15 -21 17 -28 6 -19 -16
13 -41 51 -33 51 2 0 14 -15 27 -32z"/>
<path d="M4751 2946 c-9 -11 -12 -48 -9 -125 3 -101 5 -112 28 -136 14 -15 39
-33 56 -40 16 -7 45 -32 64 -56 40 -52 80 -88 98 -89 19 0 14 -34 -9 -64 -11
-15 -40 -36 -62 -47 -49 -25 -97 -67 -97 -86 0 -17 24 -17 39 1 6 7 41 31 77
52 38 22 73 52 86 72 20 33 21 34 32 13 16 -29 41 -45 106 -66 30 -10 65 -25
77 -33 13 -8 31 -11 40 -7 16 6 15 9 -9 30 -15 13 -51 31 -80 41 -108 35 -132
73 -80 127 17 18 38 49 47 69 9 22 28 44 46 53 37 20 74 94 64 132 -9 36 -27
23 -39 -27 -9 -36 -16 -45 -39 -51 -33 -9 -51 -29 -73 -82 -20 -46 -58 -77
-93 -77 -33 1 -46 12 -104 87 -45 59 -82 83 -106 69 -20 -13 -35 42 -38 143
-2 58 -5 106 -7 108 -2 2 -9 -3 -15 -11z"/>
<path d="M5625 2840 c4 -6 11 -8 16 -5 14 9 11 15 -7 15 -8 0 -12 -5 -9 -10z"/>
<path d="M5715 2820 c-3 -5 -1 -10 4 -10 6 0 11 5 11 10 0 6 -2 10 -4 10 -3 0
-8 -4 -11 -10z"/>
<path d="M5905 2746 c66 -19 128 -37 138 -41 9 -4 17 -3 17 3 0 14 -157 63
-220 68 -48 4 -40 0 65 -30z"/>
<path d="M4160 2671 c-97 -28 -197 -67 -215 -84 -14 -12 -4 -10 165 45 80 26
161 51 180 56 l35 10 -35 0 c-19 1 -78 -12 -130 -27z"/>
<path d="M4250 2583 c-56 -37 -194 -163 -187 -169 3 -4 172 132 222 177 16 16
-9 10 -35 -8z"/>
<path d="M4455 2580 c3 -5 8 -10 11 -10 2 0 4 5 4 10 0 6 -5 10 -11 10 -5 0
-7 -4 -4 -10z"/>
</g>
</svg>
