<?xml version="1.0" standalone="no"?>
<!DOCTYPE svg PUBLIC "-//W3C//DTD SVG 20010904//EN"
 "http://www.w3.org/TR/2001/REC-SVG-20010904/DTD/svg10.dtd">
<svg version="1.0" xmlns="http://www.w3.org/2000/svg"
 width="512.000000pt" height="512.000000pt" viewBox="0 0 512.000000 512.000000"
 preserveAspectRatio="xMidYMid meet">

<g transform="translate(0.000000,512.000000) scale(0.100000,-0.100000)"
fill="#000000" stroke="none">
<path d="M2068 4558 c-34 -12 -38 -24 -84 -283 -20 -115 -39 -213 -43 -217 -3
-3 -63 17 -133 45 -111 44 -131 49 -153 39 -14 -7 -30 -24 -35 -38 -9 -24 -1
-47 71 -188 88 -173 103 -196 129 -196 21 0 50 31 50 53 0 9 -25 64 -56 122
-31 58 -54 108 -52 110 2 3 38 -9 79 -25 85 -33 125 -37 158 -14 34 24 45 61
76 241 16 90 30 161 32 159 2 -2 33 -72 68 -156 65 -155 84 -186 121 -200 46
-18 76 2 211 133 73 72 134 128 136 126 1 -2 0 -67 -4 -144 -6 -136 -1 -170
25 -187 25 -17 62 -6 128 38 67 45 189 103 216 104 8 0 -18 -60 -63 -145 -41
-80 -75 -154 -75 -165 0 -29 43 -54 70 -40 25 13 210 378 210 414 0 27 -20 51
-49 61 -26 8 -172 -40 -266 -89 -44 -22 -84 -43 -89 -45 -4 -2 -5 69 -1 158 7
147 6 163 -10 181 -31 34 -75 26 -120 -21 -22 -22 -96 -94 -165 -159 l-125
-118 -89 214 c-48 117 -93 217 -99 222 -22 16 -42 19 -69 10z"/>
<path d="M928 4406 c-93 -33 -179 -104 -238 -196 -89 -138 -114 -339 -66 -525
64 -249 179 -407 501 -692 129 -114 217 -211 264 -290 46 -77 81 -199 80 -277
0 -51 -1 -51 -61 -95 -90 -66 -199 -215 -292 -399 -20 -40 -43 -72 -51 -72
-25 0 -327 -156 -420 -218 -231 -152 -316 -264 -283 -374 27 -91 118 -147 221
-134 55 6 632 175 721 211 l60 24 32 -37 c18 -20 33 -39 33 -42 0 -3 -119 -79
-266 -170 -358 -222 -413 -274 -413 -393 0 -107 79 -169 213 -169 106 -1 488
104 778 213 160 60 179 65 179 51 0 -22 115 -133 162 -156 107 -53 229 -26
328 73 380 380 532 1639 289 2397 -58 182 -125 301 -215 383 -226 207 -494 -1
-655 -510 l-32 -101 -23 39 c-75 129 -147 197 -345 331 -58 39 -131 98 -161
130 -100 105 -101 174 -6 407 34 86 66 183 74 227 30 173 -35 302 -180 357
-65 24 -170 28 -228 7z m1437 -925 c227 -103 381 -726 345 -1396 -33 -627
-197 -1151 -410 -1308 -81 -59 -159 -50 -236 28 -30 30 -54 58 -54 63 0 20 39
20 57 0 53 -59 155 -64 221 -11 152 122 272 509 323 1043 18 192 16 616 -5
790 -43 368 -130 599 -246 658 -54 27 -89 28 -139 2 -133 -67 -256 -359 -321
-757 -7 -40 -15 -73 -20 -73 -4 0 -10 51 -14 113 -7 108 -5 117 28 240 88 317
215 545 338 606 52 26 81 26 133 2z m-1234 -63 c32 -62 108 -132 263 -238 205
-141 283 -232 342 -405 23 -68 27 -97 28 -195 0 -80 -5 -134 -17 -178 -21 -75
-12 -102 33 -102 33 0 54 25 65 78 4 17 8 32 10 32 21 0 428 67 519 86 65 13
124 24 131 24 19 0 26 -201 15 -428 -18 -347 -64 -639 -136 -862 l-35 -108
-132 -55 c-146 -61 -368 -150 -492 -195 l-81 -30 -17 65 c-22 83 -63 155 -125
220 l-50 52 52 33 c69 44 73 74 18 132 -49 52 -76 91 -127 185 -36 68 -43 76
-69 76 -44 0 -58 -30 -40 -80 9 -22 18 -47 20 -55 4 -12 -11 -22 -60 -39 -36
-12 -69 -20 -74 -17 -6 3 -13 23 -17 43 -8 48 -77 196 -111 240 -14 19 -24 36
-22 38 2 2 33 14 68 27 l65 23 52 103 c64 127 148 255 199 302 26 24 35 29 29
15 -24 -61 -10 -115 31 -115 75 0 130 284 89 465 -22 98 -86 224 -160 315 -32
39 -128 133 -214 209 -86 76 -181 165 -211 197 -61 65 -115 133 -109 138 2 1
42 8 87 15 46 7 94 16 105 21 42 17 56 11 78 -32z m-170 -1780 c39 -52 82
-146 98 -212 7 -27 11 -49 9 -51 -8 -5 -458 -135 -491 -141 -100 -17 -153 69
-89 148 29 36 85 88 142 129 56 41 273 169 287 169 7 0 27 -19 44 -42z m461
-576 c68 -71 110 -150 112 -210 1 -54 19 -45 -293 -132 -228 -64 -306 -74
-361 -45 -25 13 -30 22 -30 51 0 47 28 86 103 140 67 50 77 53 77 24 0 -64 63
-114 106 -85 52 34 38 110 -25 131 l-34 11 139 86 c76 48 141 87 145 87 3 0
31 -26 61 -58z"/>
<path d="M1454 1880 c-12 -5 -23 -17 -26 -27 -7 -24 8 -63 24 -63 6 0 0 -12
-14 -27 -34 -38 -39 -57 -22 -82 19 -27 55 -27 79 -1 21 23 35 26 35 7 0 -22
36 -49 61 -45 34 5 45 30 33 77 l-11 41 36 5 c71 11 86 19 89 48 2 16 -2 35
-9 43 -15 19 -85 18 -139 -1 -40 -14 -45 -14 -64 3 -28 25 -47 31 -72 22z"/>
<path d="M682 1468 c-15 -15 -16 -72 -2 -99 12 -21 50 -25 68 -7 7 7 12 28 12
48 0 55 -47 89 -78 58z"/>
<path d="M516 1391 c-10 -15 4 -40 26 -47 24 -7 41 7 36 32 -3 21 -52 32 -62
15z"/>
<path d="M612 1308 c-16 -16 3 -48 29 -48 25 0 35 25 19 45 -15 18 -32 19 -48
3z"/>
<path d="M960 850 c-19 -12 -2 -63 23 -68 46 -9 64 52 21 68 -30 12 -26 12
-44 0z"/>
<path d="M1014 725 c-4 -9 0 -23 9 -32 21 -21 49 -9 45 19 -4 28 -45 38 -54
13z"/>
<path d="M2806 3418 c-20 -29 -20 -41 2 -61 16 -15 605 -157 1172 -282 352
-78 440 -114 535 -217 85 -91 114 -191 135 -462 38 -495 -13 -921 -131 -1099
-37 -56 -108 -110 -188 -143 -112 -45 -431 -119 -1146 -265 -483 -99 -693
-147 -713 -162 -18 -14 -11 -67 10 -80 12 -8 62 0 195 31 98 22 333 72 523
111 1146 232 1294 280 1408 459 114 176 175 573 152 985 -25 461 -57 584 -185
712 -99 100 -209 145 -518 216 -100 22 -414 95 -697 160 -283 65 -520 119
-527 119 -6 0 -19 -10 -27 -22z"/>
<path d="M3580 2633 c-28 -11 -59 -45 -65 -73 -27 -123 151 -271 248 -207 36
24 54 85 39 135 -13 42 -67 104 -110 126 -33 17 -91 27 -112 19z"/>
<path d="M3905 2421 c-120 -54 -247 -293 -232 -438 13 -121 128 -278 246 -336
82 -41 126 -34 156 23 21 41 19 90 -10 205 -29 116 -31 184 -9 275 40 166 11
257 -91 284 -11 3 -38 -3 -60 -13z"/>
<path d="M3305 2396 c-45 -19 -85 -71 -85 -110 0 -44 49 -119 100 -152 30 -20
58 -29 99 -32 50 -4 61 -1 89 23 62 52 56 141 -16 215 -63 64 -125 83 -187 56z"/>
<path d="M3410 1994 c-76 -12 -95 -19 -127 -47 -93 -82 -81 -221 22 -255 110
-37 264 66 265 176 0 34 -26 85 -52 101 -24 15 -83 28 -108 25z"/>
<path d="M3615 1726 c-41 -18 -92 -77 -104 -123 -31 -111 5 -183 93 -183 57 0
84 10 120 46 67 67 87 178 41 228 -42 45 -94 57 -150 32z"/>
</g>
</svg>
